<?xml version="1.0" encoding="UTF-8"?>
<svg xmlns="http://www.w3.org/2000/svg" xmlns:xlink="http://www.w3.org/1999/xlink" width="64px" height="63px" viewBox="0 0 64 63" version="1.1">
<g id="surface1">
<path style=" stroke:none;fill-rule:evenodd;fill:rgb(76.862746%,70.588237%,100%);fill-opacity:1;" d="M 31.90625 0 C 14.261719 0 0 14.4375 0 32.296875 C 0 46.574219 9.136719 58.660156 21.816406 62.9375 C 23.402344 63.261719 23.980469 62.242188 23.980469 61.390625 C 23.980469 60.640625 23.929688 58.074219 23.929688 55.398438 C 15.054688 57.324219 13.207031 51.550781 13.207031 51.550781 C 11.777344 47.804688 9.664062 46.84375 9.664062 46.84375 C 6.761719 44.863281 9.878906 44.863281 9.878906 44.863281 C 13.101562 45.078125 14.789062 48.179688 14.789062 48.179688 C 17.640625 53.101562 22.238281 51.710938 24.085938 50.855469 C 24.351562 48.769531 25.195312 47.324219 26.09375 46.523438 C 19.015625 45.773438 11.566406 42.992188 11.566406 30.585938 C 11.566406 27.058594 12.835938 24.171875 14.84375 21.925781 C 14.527344 21.121094 13.417969 17.808594 15.160156 13.367188 C 15.160156 13.367188 17.855469 12.511719 23.929688 16.683594 C 26.527344 15.976562 29.210938 15.617188 31.90625 15.613281 C 34.597656 15.613281 37.34375 15.988281 39.878906 16.683594 C 45.957031 12.511719 48.648438 13.367188 48.648438 13.367188 C 50.394531 17.808594 49.28125 21.121094 48.964844 21.925781 C 51.027344 24.171875 52.242188 27.058594 52.242188 30.585938 C 52.242188 42.992188 44.792969 45.71875 37.660156 46.523438 C 38.824219 47.539062 39.828125 49.464844 39.828125 52.511719 C 39.828125 56.84375 39.773438 60.320312 39.773438 61.386719 C 39.773438 62.242188 40.355469 63.261719 41.941406 62.941406 C 54.617188 58.660156 63.757812 46.574219 63.757812 32.296875 C 63.808594 14.4375 49.496094 0 31.90625 0 Z M 31.90625 0 "/>
</g>
</svg>
