<?xml version="1.0" encoding="UTF-8"?>
<svg xmlns="http://www.w3.org/2000/svg" xmlns:xlink="http://www.w3.org/1999/xlink" width="128px" height="128px" viewBox="0 0 128 128" version="1.1">
<g id="surface1">
<path style=" stroke:none;fill-rule:nonzero;fill:rgb(100%,100%,100%);fill-opacity:1;" d="M 114.90625 84.144531 C 114.90625 84.144531 114.734375 83.105469 114.636719 83.117188 L 95.8125 84.933594 C 94.3125 85.078125 93.148438 86.273438 93.042969 87.773438 L 92.527344 95.1875 L 77.960938 96.226562 L 76.972656 89.507812 C 76.75 88.011719 75.445312 86.886719 73.933594 86.886719 L 54.066406 86.886719 C 52.554688 86.886719 51.25 88.011719 51.027344 89.507812 L 50.039062 96.226562 L 35.472656 95.1875 L 34.957031 87.773438 C 34.851562 86.269531 33.6875 85.078125 32.1875 84.933594 L 13.351562 83.117188 C 13.257812 83.105469 13.183594 84.144531 13.085938 84.144531 L 13.0625 88.21875 L 29.015625 90.792969 L 29.535156 98.269531 C 29.640625 99.785156 30.863281 101.007812 32.378906 101.117188 L 52.4375 102.550781 C 52.515625 102.554688 52.589844 102.558594 52.664062 102.558594 C 54.171875 102.558594 55.472656 101.429688 55.695312 99.9375 L 56.714844 93.023438 L 71.285156 93.023438 L 72.304688 99.9375 C 72.527344 101.429688 73.828125 102.558594 75.339844 102.558594 C 75.414062 102.558594 75.488281 102.554688 75.558594 102.550781 L 95.621094 101.117188 C 97.136719 101.007812 98.359375 99.785156 98.464844 98.269531 L 98.984375 90.792969 L 114.929688 88.207031 Z M 114.90625 84.144531 "/>
<path style=" stroke:none;fill-rule:nonzero;fill:rgb(27.843139%,54.901963%,74.901962%);fill-opacity:1;" d="M 13.085938 53.421875 L 13.085938 84.144531 C 13.144531 84.144531 13.199219 84.148438 13.253906 84.152344 L 32.089844 85.96875 C 33.074219 86.0625 33.847656 86.855469 33.917969 87.84375 L 34.5 96.160156 L 50.925781 97.332031 L 52.058594 89.660156 C 52.207031 88.664062 53.058594 87.925781 54.066406 87.925781 L 73.933594 87.925781 C 74.941406 87.925781 75.792969 88.664062 75.941406 89.660156 L 77.074219 97.332031 L 93.503906 96.160156 L 94.082031 87.84375 C 94.152344 86.855469 94.925781 86.0625 95.910156 85.96875 L 114.738281 84.152344 C 114.792969 84.148438 114.847656 84.144531 114.90625 84.144531 L 114.90625 81.691406 L 114.914062 81.691406 L 114.914062 53.421875 C 117.566406 50.085938 120.074219 46.402344 122 43.304688 C 119.058594 38.296875 115.457031 33.824219 111.605469 29.679688 C 108.035156 31.476562 104.566406 33.515625 101.289062 35.683594 C 99.648438 34.050781 97.804688 32.71875 95.988281 31.324219 C 94.207031 29.894531 92.199219 28.84375 90.292969 27.621094 C 90.859375 23.398438 91.140625 19.242188 91.253906 14.902344 C 86.339844 12.425781 81.097656 10.789062 75.796875 9.609375 C 73.679688 13.167969 71.742188 17.019531 70.058594 20.785156 C 68.058594 20.453125 66.050781 20.328125 64.039062 20.304688 L 64.039062 20.300781 C 64.023438 20.300781 64.011719 20.304688 64 20.304688 C 63.988281 20.304688 63.976562 20.300781 63.960938 20.300781 L 63.960938 20.304688 C 61.949219 20.328125 59.941406 20.453125 57.941406 20.785156 C 56.257812 17.019531 54.320312 13.167969 52.203125 9.609375 C 46.902344 10.789062 41.660156 12.425781 36.746094 14.902344 C 36.859375 19.242188 37.140625 23.398438 37.707031 27.621094 C 35.800781 28.84375 33.792969 29.894531 32.011719 31.324219 C 30.199219 32.71875 28.351562 34.050781 26.710938 35.683594 C 23.433594 33.515625 19.964844 31.476562 16.394531 29.679688 C 12.542969 33.824219 8.941406 38.296875 6 43.304688 C 8.3125 46.933594 10.792969 50.578125 13.085938 53.421875 Z M 13.085938 53.421875 "/>
<path style=" stroke:none;fill-rule:nonzero;fill:rgb(27.843139%,54.901963%,74.901962%);fill-opacity:1;" d="M 98.007812 89.839844 L 97.425781 98.199219 C 97.355469 99.207031 96.554688 100.007812 95.546875 100.078125 L 75.484375 101.511719 C 75.4375 101.515625 75.386719 101.515625 75.339844 101.515625 C 74.34375 101.515625 73.480469 100.785156 73.335938 99.785156 L 72.183594 91.980469 L 55.816406 91.980469 L 54.664062 99.785156 C 54.511719 100.832031 53.570312 101.589844 52.515625 101.511719 L 32.453125 100.078125 C 31.445312 100.007812 30.644531 99.207031 30.574219 98.199219 L 29.992188 89.839844 L 13.054688 88.207031 C 13.0625 90.027344 13.085938 92.023438 13.085938 92.417969 C 13.085938 110.304688 35.777344 118.902344 63.964844 119 L 64.035156 119 C 92.222656 118.902344 114.90625 110.304688 114.90625 92.417969 C 114.90625 92.015625 114.929688 90.027344 114.9375 88.207031 Z M 98.007812 89.839844 "/>
<path style=" stroke:none;fill-rule:nonzero;fill:rgb(100%,100%,100%);fill-opacity:1;" d="M 48.652344 65.894531 C 48.652344 72.164062 43.570312 77.246094 37.300781 77.246094 C 31.035156 77.246094 25.953125 72.164062 25.953125 65.894531 C 25.953125 59.628906 31.035156 54.550781 37.300781 54.550781 C 43.570312 54.550781 48.652344 59.628906 48.652344 65.894531 "/>
<path style=" stroke:none;fill-rule:nonzero;fill:rgb(25.490198%,25.098041%,25.882354%);fill-opacity:1;" d="M 45.921875 66.566406 C 45.921875 70.726562 42.550781 74.097656 38.386719 74.097656 C 34.226562 74.097656 30.851562 70.726562 30.851562 66.566406 C 30.851562 62.40625 34.226562 59.035156 38.386719 59.035156 C 42.550781 59.035156 45.921875 62.40625 45.921875 66.566406 "/>
<path style=" stroke:none;fill-rule:nonzero;fill:rgb(100%,100%,100%);fill-opacity:1;" d="M 64 78.277344 C 61.980469 78.277344 60.347656 76.789062 60.347656 74.957031 L 60.347656 64.507812 C 60.347656 62.675781 61.980469 61.1875 64 61.1875 C 66.015625 61.1875 67.65625 62.675781 67.65625 64.507812 L 67.65625 74.957031 C 67.65625 76.789062 66.015625 78.277344 64 78.277344 "/>
<path style=" stroke:none;fill-rule:nonzero;fill:rgb(100%,100%,100%);fill-opacity:1;" d="M 79.347656 65.894531 C 79.347656 72.164062 84.429688 77.246094 90.699219 77.246094 C 96.964844 77.246094 102.046875 72.164062 102.046875 65.894531 C 102.046875 59.628906 96.964844 54.550781 90.699219 54.550781 C 84.429688 54.550781 79.347656 59.628906 79.347656 65.894531 "/>
<path style=" stroke:none;fill-rule:nonzero;fill:rgb(25.490198%,25.098041%,25.882354%);fill-opacity:1;" d="M 82.078125 66.566406 C 82.078125 70.726562 85.449219 74.097656 89.609375 74.097656 C 93.773438 74.097656 97.144531 70.726562 97.144531 66.566406 C 97.144531 62.40625 93.773438 59.035156 89.609375 59.035156 C 85.449219 59.035156 82.078125 62.40625 82.078125 66.566406 "/>
</g>
</svg>
