<?xml version="1.0" encoding="UTF-8"?>
<svg xmlns="http://www.w3.org/2000/svg" xmlns:xlink="http://www.w3.org/1999/xlink" width="100px" height="89px" viewBox="0 0 102 89" version="1.1">
<g id="surface1">
<path style=" stroke:none;fill-rule:nonzero;fill:rgb(38.039216%,85.490197%,98.431373%);fill-opacity:1;" d="M 59.886719 44.5 C 59.886719 39.574219 55.90625 35.585938 51 35.585938 C 46.09375 35.585938 42.113281 39.574219 42.113281 44.5 C 42.113281 49.425781 46.09375 53.414062 51 53.414062 C 55.90625 53.414062 59.886719 49.425781 59.886719 44.5 Z M 59.886719 44.5 "/>
<path style="fill:none;stroke-width:1;stroke-linecap:butt;stroke-linejoin:miter;stroke:rgb(38.039216%,85.490197%,98.431373%);stroke-opacity:1;stroke-miterlimit:4;" d="M 10.999552 0 C 10.999552 -2.319925 6.075213 -4.199756 -0.000000000000001776 -4.199756 C -6.075213 -4.199756 -10.999552 -2.319925 -10.999552 0 C -10.999552 2.319925 -6.075213 4.199756 -0.000000000000001776 4.199756 C 6.075213 4.199756 10.999552 2.319925 10.999552 0 Z M 10.999552 0 " transform="matrix(4.334339,0,0,4.349211,51,44.5)"/>
<path style="fill:none;stroke-width:1;stroke-linecap:butt;stroke-linejoin:miter;stroke:rgb(38.039216%,85.490197%,98.431373%);stroke-opacity:1;stroke-miterlimit:4;" d="M 11.00047 0.0000098306 C 10.999948 -2.31991 6.0752 -4.199569 0.000141114 -4.2 C -6.075368 -4.199651 -11.000213 -2.319481 -11.00047 -0.0000098306 C -10.999948 2.31991 -6.0752 4.199569 -0.000141114 4.2 C 6.075368 4.199651 11.000213 2.319481 11.00047 0.0000098306 Z M 11.00047 0.0000098306 " transform="matrix(2.167169,3.766528,-3.753647,2.174606,51,44.5)"/>
<path style="fill:none;stroke-width:1;stroke-linecap:butt;stroke-linejoin:miter;stroke:rgb(38.039216%,85.490197%,98.431373%);stroke-opacity:1;stroke-miterlimit:4;" d="M 11.00047 -0.0000098306 C 11.000213 -2.319481 6.075368 -4.199651 -0.000141114 -4.2 C -6.0752 -4.199569 -10.999948 -2.31991 -11.00047 0.0000098306 C -11.000213 2.319481 -6.075368 4.199651 0.000141114 4.2 C 6.0752 4.199569 10.999948 2.31991 11.00047 -0.0000098306 Z M 11.00047 -0.0000098306 " transform="matrix(-2.167169,3.766528,-3.753647,-2.174606,51,44.5)"/>
</g>
</svg>
