<?xml version="1.0" encoding="UTF-8"?>
<svg xmlns="http://www.w3.org/2000/svg" xmlns:xlink="http://www.w3.org/1999/xlink" width="96px" height="92px" viewBox="0 0 150 92" version="1.1">
<defs>
<clipPath id="clip1">
  <path d="M 0 0 L 150 0 L 150 90.328125 L 0 90.328125 Z M 0 0 "/>
</clipPath>
</defs>
<g id="surface1">
<g clip-path="url(#clip1)" clip-rule="nonzero">
<path style=" stroke:none;fill-rule:evenodd;fill:rgb(21.960784%,74.117649%,97.254902%);fill-opacity:1;" d="M 75 0 C 55 0 42.5 10.035156 37.5 30.109375 C 45 20.074219 53.75 16.308594 63.75 18.816406 C 69.457031 20.25 73.535156 24.40625 78.046875 29.003906 C 85.398438 36.492188 93.910156 45.164062 112.5 45.164062 C 132.5 45.164062 145 35.128906 150 15.054688 C 142.5 25.089844 133.75 28.855469 123.75 26.34375 C 118.042969 24.914062 113.964844 20.757812 109.453125 16.160156 C 102.101562 8.671875 93.589844 0 75 0 Z M 37.5 45.164062 C 17.5 45.164062 5 55.199219 0 75.273438 C 7.5 65.238281 16.25 61.472656 26.25 63.980469 C 31.957031 65.414062 36.035156 69.570312 40.546875 74.164062 C 47.898438 81.65625 56.410156 90.328125 75 90.328125 C 95 90.328125 107.5 80.289062 112.5 60.21875 C 105 70.253906 96.25 74.019531 86.25 71.507812 C 80.542969 70.078125 76.464844 65.921875 71.953125 61.324219 C 64.601562 53.832031 56.089844 45.164062 37.5 45.164062 Z M 37.5 45.164062 "/>
</g>
</g>
</svg>
