<?xml version="1.0" encoding="UTF-8"?>
<svg xmlns="http://www.w3.org/2000/svg" xmlns:xlink="http://www.w3.org/1999/xlink" width="96px" height="96px" viewBox="0 0 96 96" version="1.1">
<g id="surface1">
<path style=" stroke:none;fill-rule:nonzero;fill:rgb(19.215687%,47.058824%,77.64706%);fill-opacity:1;" d="M 4.5 0 L 91.5 0 C 93.984375 0 96 2.015625 96 4.5 L 96 91.5 C 96 93.984375 93.984375 96 91.5 96 L 4.5 96 C 2.015625 96 0 93.984375 0 91.5 L 0 4.5 C 0 2.015625 2.015625 0 4.5 0 Z M 4.5 0 "/>
<path style=" stroke:none;fill-rule:evenodd;fill:rgb(100%,100%,100%);fill-opacity:1;" d="M 55.695312 74.601562 L 55.695312 85.121094 C 57.402344 85.996094 59.417969 86.652344 61.742188 87.09375 C 64.070312 87.53125 66.523438 87.75 69.101562 87.75 C 71.613281 87.75 74 87.507812 76.261719 87.027344 C 78.523438 86.542969 80.507812 85.75 82.210938 84.644531 C 83.914062 83.535156 85.265625 82.089844 86.257812 80.304688 C 87.253906 78.519531 87.75 76.308594 87.75 73.679688 C 87.75 71.773438 87.464844 70.101562 86.898438 68.667969 C 86.328125 67.230469 85.511719 65.957031 84.441406 64.835938 C 83.371094 63.71875 82.085938 62.71875 80.589844 61.828125 C 79.09375 60.941406 77.40625 60.105469 75.523438 59.316406 C 74.148438 58.746094 72.914062 58.191406 71.820312 57.65625 C 70.730469 57.117188 69.800781 56.570312 69.035156 56.011719 C 68.269531 55.453125 67.679688 54.859375 67.265625 54.238281 C 66.851562 53.613281 66.644531 52.90625 66.644531 52.117188 C 66.644531 51.394531 66.828125 50.742188 67.199219 50.160156 C 67.570312 49.578125 68.097656 49.082031 68.773438 48.664062 C 69.449219 48.25 70.28125 47.925781 71.265625 47.695312 C 72.246094 47.464844 73.339844 47.347656 74.542969 47.347656 C 75.417969 47.347656 76.339844 47.414062 77.3125 47.546875 C 78.285156 47.679688 79.261719 47.882812 80.246094 48.15625 C 81.226562 48.429688 82.183594 48.773438 83.113281 49.191406 C 84.042969 49.605469 84.898438 50.089844 85.683594 50.636719 L 85.683594 40.808594 C 84.089844 40.195312 82.347656 39.738281 80.457031 39.445312 C 78.566406 39.148438 76.398438 39 73.953125 39 C 71.460938 39 69.101562 39.269531 66.871094 39.804688 C 64.644531 40.34375 62.683594 41.179688 60.988281 42.320312 C 59.296875 43.460938 57.957031 44.910156 56.976562 46.675781 C 55.992188 48.441406 55.5 50.550781 55.5 53.003906 C 55.5 56.136719 56.402344 58.8125 58.203125 61.023438 C 60.007812 63.238281 62.742188 65.113281 66.414062 66.644531 C 67.855469 67.238281 69.199219 67.816406 70.445312 68.386719 C 71.691406 68.957031 72.765625 69.550781 73.671875 70.164062 C 74.582031 70.777344 75.296875 71.445312 75.820312 72.167969 C 76.34375 72.890625 76.605469 73.714844 76.605469 74.632812 C 76.605469 75.3125 76.441406 75.945312 76.117188 76.523438 C 75.789062 77.105469 75.289062 77.609375 74.625 78.035156 C 73.957031 78.464844 73.128906 78.796875 72.132812 79.039062 C 71.140625 79.28125 69.976562 79.398438 68.640625 79.398438 C 66.371094 79.398438 64.121094 79 61.890625 78.199219 C 59.664062 77.402344 57.597656 76.199219 55.695312 74.601562 Z M 38.027344 48.414062 L 51.75 48.414062 L 51.75 39.75 L 13.5 39.75 L 13.5 48.414062 L 27.15625 48.414062 L 27.15625 87 L 38.027344 87 Z M 38.027344 48.414062 "/>
</g>
</svg>
